<?xml version="1.0" standalone="no"?>
<!DOCTYPE svg PUBLIC "-//W3C//DTD SVG 20010904//EN"
 "http://www.w3.org/TR/2001/REC-SVG-20010904/DTD/svg10.dtd">
<svg version="1.0" xmlns="http://www.w3.org/2000/svg"
 width="800.000000pt" height="800.000000pt" viewBox="0 0 800.000000 800.000000"
 preserveAspectRatio="xMidYMid meet">

<g transform="translate(0.000000,800.000000) scale(0.100000,-0.100000)"
fill="#000000" stroke="none">
<path d="M3705 7988 c-3 -7 -27 -119 -53 -248 l-48 -235 -55 -8 c-152 -22
-355 -63 -460 -91 l-117 -32 -133 195 c-74 107 -137 199 -141 205 -3 5 -118
-37 -275 -104 l-270 -113 49 -240 c26 -133 48 -244 48 -248 0 -4 -44 -34 -97
-67 -54 -33 -156 -102 -226 -153 -70 -52 -133 -98 -140 -103 -9 -6 -79 35
-221 130 l-207 138 -204 -204 c-113 -113 -205 -208 -205 -212 0 -4 59 -96 131
-204 72 -108 133 -202 135 -209 3 -6 -33 -65 -80 -131 -47 -65 -122 -181 -167
-256 -45 -76 -87 -138 -93 -138 -6 0 -117 20 -245 45 -129 24 -236 43 -238 42
-7 -7 -213 -522 -213 -532 0 -7 80 -65 177 -130 98 -64 192 -128 209 -141 l32
-23 -25 -97 c-26 -103 -73 -368 -73 -412 0 -54 12 -50 -447 -143 l-53 -10 0
-293 0 -292 246 -49 c212 -43 248 -53 254 -70 5 -11 16 -69 25 -130 14 -94 74
-365 91 -408 4 -11 -215 -171 -407 -297 -7 -5 202 -522 217 -539 2 -3 111 17
242 42 131 26 244 47 250 47 6 0 37 -44 69 -98 49 -82 139 -214 231 -338 l23
-31 -140 -214 -141 -214 203 -203 c127 -127 208 -201 218 -199 8 2 105 64 214
137 186 124 200 132 221 119 12 -8 72 -50 133 -94 88 -64 233 -157 347 -223 9
-5 -1 -77 -35 -257 -26 -137 -47 -251 -47 -252 1 -1 123 -51 271 -111 l270
-110 142 213 142 213 117 -29 c117 -29 292 -62 391 -74 36 -5 54 -12 57 -23 3
-10 26 -122 52 -249 l48 -233 292 0 c270 0 293 1 298 18 2 9 26 121 52 247
l47 230 146 23 c80 12 209 38 286 56 107 27 143 32 151 23 7 -7 73 -102 149
-212 75 -110 142 -199 148 -197 27 8 513 214 519 221 5 4 -14 117 -41 251 -27
135 -47 248 -45 251 2 3 52 35 110 69 59 35 163 103 230 152 68 48 126 88 128
88 3 0 101 -63 218 -140 l213 -139 206 206 207 206 -140 212 -139 213 88 118
c79 107 235 346 245 376 3 9 75 -1 258 -35 139 -26 254 -46 255 -45 7 7 215
525 215 533 0 6 -93 71 -205 145 -112 74 -205 140 -205 146 0 7 15 76 34 155
19 79 42 191 51 249 23 146 23 148 43 154 9 2 122 26 250 52 l232 47 0 293 0
293 -72 15 c-40 9 -149 32 -243 51 -93 20 -173 41 -177 48 -4 6 -8 24 -8 39 0
72 -85 491 -115 570 -4 10 57 57 197 153 112 76 207 141 211 145 5 4 -42 127
-104 274 -80 191 -117 266 -128 266 -9 0 -117 -20 -241 -45 -124 -25 -230 -45
-236 -45 -7 0 -31 33 -55 73 -56 95 -143 225 -213 316 -31 41 -56 78 -56 83 0
4 62 101 137 214 l137 205 -204 204 c-113 113 -208 205 -212 205 -4 0 -100
-61 -213 -136 l-207 -135 -37 26 c-20 14 -79 57 -131 95 -52 38 -152 104 -223
146 -93 56 -126 81 -123 93 11 38 89 472 85 475 -13 12 -530 216 -537 212 -5
-3 -69 -95 -142 -206 -124 -186 -136 -201 -160 -197 -14 3 -84 18 -157 35 -72
16 -187 38 -255 48 -68 9 -124 18 -125 19 -3 1 -54 245 -93 438 l-11 57 -290
0 c-223 0 -291 -3 -294 -12z m739 -1097 c824 -128 1544 -589 2002 -1282 239
-361 387 -752 456 -1199 31 -206 32 -611 1 -810 -115 -738 -448 -1345 -998
-1820 -678 -585 -1594 -820 -2492 -640 -246 50 -469 129 -718 254 -294 148
-524 315 -755 546 -442 442 -718 987 -822 1621 -30 184 -33 670 -5 849 52 333
133 593 277 885 406 826 1187 1415 2095 1580 213 38 289 44 565 40 199 -2 285
-8 394 -24z"/>
<path d="M3787 6693 c-9 -8 -9 -135 0 -280 l6 -113 33 0 33 0 -6 85 c-5 76 -4
85 11 85 33 0 53 -20 95 -90 41 -68 43 -70 82 -70 l41 0 -32 58 c-18 31 -43
68 -56 82 l-23 25 33 27 c38 31 49 70 35 121 -17 62 -48 77 -154 77 -50 0 -95
-3 -98 -7z m188 -97 c8 -24 6 -31 -14 -47 -15 -12 -39 -19 -67 -19 l-44 0 0
50 0 51 57 -3 c53 -3 58 -5 68 -32z"/>
<path d="M4197 6679 c-9 -5 -24 -23 -32 -39 -35 -68 -6 -133 77 -172 70 -33
85 -51 70 -83 -24 -52 -108 -34 -122 26 -6 25 -44 39 -62 21 -15 -15 8 -85 36
-111 32 -30 91 -43 139 -30 49 13 77 57 77 120 0 60 -26 93 -95 124 -62 27
-83 55 -59 79 30 31 89 13 96 -29 2 -14 12 -21 36 -23 28 -3 32 0 32 22 0 38
-18 71 -50 89 -31 19 -115 22 -143 6z"/>
<path d="M3526 6659 c-54 -10 -101 -21 -104 -24 -5 -5 57 -376 64 -384 2 -2
57 7 123 19 l121 22 -6 27 c-4 14 -8 29 -10 32 -2 3 -40 -1 -84 -9 -47 -8 -85
-11 -89 -6 -5 5 -11 28 -15 51 -7 48 -16 42 97 63 55 11 57 12 51 38 -4 15 -8
29 -10 31 -2 2 -36 -1 -74 -8 -39 -6 -75 -9 -80 -6 -12 8 -18 77 -6 80 6 2 44
9 84 15 l73 12 -3 31 c-4 39 -7 40 -132 16z"/>
<path d="M4510 6648 c-1 -2 -18 -86 -39 -188 -21 -102 -36 -188 -32 -192 3 -3
17 -8 31 -10 25 -3 25 -1 64 185 33 159 37 190 25 198 -13 8 -48 13 -49 7z"/>
<path d="M3286 6607 l-29 -10 6 -151 7 -151 -82 123 c-79 119 -83 123 -112
118 -16 -4 -31 -8 -34 -10 -7 -8 218 -336 231 -336 6 0 22 3 35 6 22 6 22 8
21 173 0 91 -4 184 -7 207 -7 40 -8 41 -36 31z"/>
<path d="M4646 6594 c-8 -32 -5 -36 42 -50 43 -12 44 -1 -8 -175 -22 -73 -40
-138 -40 -145 0 -10 50 -27 57 -20 2 2 23 69 47 150 25 81 47 150 49 153 3 2
24 -1 46 -8 47 -14 51 -12 54 26 2 27 -1 29 -108 61 -60 19 -115 34 -121 34
-7 0 -15 -12 -18 -26z"/>
<path d="M4975 6393 l7 -128 -31 -67 c-17 -37 -31 -71 -31 -76 0 -8 50 -36 55
-30 1 2 17 37 37 78 32 69 42 81 131 150 53 41 96 78 97 81 0 6 -46 29 -60 29
-4 0 -35 -22 -67 -50 -32 -27 -61 -50 -65 -50 -5 0 -8 38 -8 83 0 80 -1 84
-25 95 -46 21 -47 19 -40 -115z"/>
<path d="M2932 6479 c-28 -11 -31 0 57 -205 37 -87 75 -160 82 -162 8 -1 22 3
32 10 16 12 12 26 -59 191 -42 97 -79 177 -83 176 -3 0 -16 -4 -29 -10z"/>
<path d="M2775 6408 c-11 -6 -22 -12 -24 -14 -3 -3 44 -92 97 -183 15 -26 20
-41 12 -36 -8 5 -61 39 -117 77 -56 37 -108 68 -116 68 -7 0 -22 -6 -32 -14
-17 -12 -13 -23 75 -180 51 -91 96 -168 100 -171 4 -2 17 3 29 11 l22 16 -37
66 c-20 37 -48 87 -62 111 -15 26 -20 40 -11 35 8 -5 62 -41 120 -80 101 -69
106 -71 132 -58 15 8 27 17 27 20 0 8 -182 334 -189 338 -4 3 -15 0 -26 -6z"/>
<path d="M5456 6215 c-83 -29 -166 -144 -166 -230 0 -76 37 -124 113 -146 74
-21 166 41 218 146 26 53 31 73 26 107 -12 93 -105 153 -191 123z m103 -91
c26 -33 26 -57 0 -110 -29 -61 -81 -104 -124 -104 -101 0 -99 132 3 217 39 33
94 31 121 -3z"/>
<path d="M2433 6199 l-21 -21 84 -110 c100 -132 108 -152 70 -185 -15 -13 -33
-23 -40 -23 -24 0 -60 37 -136 139 -41 55 -77 100 -80 100 -3 0 -16 -8 -29
-18 l-24 -19 68 -88 c136 -177 175 -204 249 -169 78 37 105 104 68 171 -20 37
-175 244 -182 244 -3 0 -15 -9 -27 -21z"/>
<path d="M3680 6071 c-227 -35 -391 -87 -605 -191 -420 -204 -753 -535 -960
-955 -143 -288 -215 -599 -215 -925 0 -705 349 -1355 938 -1746 255 -170 559
-284 873 -329 122 -17 407 -20 529 -5 645 80 1216 450 1548 1001 269 449 361
987 256 1499 -179 872 -893 1539 -1772 1655 -155 21 -443 18 -592 -4z m488
-147 l31 -6 -88 -117 c-48 -64 -227 -303 -397 -531 -170 -228 -349 -469 -399
-535 l-90 -120 -527 -2 c-291 -1 -528 -1 -528 1 0 12 58 153 90 220 147 307
389 583 676 774 269 178 538 274 889 315 54 7 312 7 343 1z m225 -103 c53 -39
97 -74 97 -77 0 -12 -154 -214 -163 -214 -7 0 -185 127 -211 151 -13 12 154
232 168 221 6 -5 55 -41 109 -81z m285 -10 c383 -142 719 -411 946 -757 576
-881 343 -2053 -529 -2656 -118 -82 -384 -218 -426 -218 -5 0 -9 310 -9 691
l0 690 103 137 c129 171 496 662 692 927 82 110 168 226 192 257 l44 57 -198
148 c-109 80 -247 183 -308 228 -249 184 -397 293 -520 384 -71 53 -156 116
-187 139 -32 24 -58 44 -58 47 0 7 173 -43 258 -74z m-17 -187 c57 -42 106
-78 108 -80 2 -2 -33 -53 -79 -114 -54 -73 -86 -107 -94 -102 -7 4 -58 40
-114 81 l-102 74 23 31 c13 17 50 66 81 109 32 42 62 77 66 77 4 0 54 -34 111
-76z m-478 -74 l107 -80 -76 -103 c-42 -56 -79 -106 -84 -110 -4 -5 -58 29
-119 74 l-111 82 23 31 c13 17 50 66 81 109 32 42 62 77 66 77 4 0 55 -36 113
-80z m764 -138 l101 -75 -80 -106 c-44 -58 -85 -106 -92 -105 -9 1 -144 95
-215 150 -9 8 162 223 173 217 6 -3 57 -40 113 -81z m-484 -69 c53 -41 97 -76
97 -80 0 -10 -154 -213 -161 -213 -6 0 -190 132 -218 156 -2 2 33 53 79 114
50 67 86 107 94 103 6 -4 55 -40 109 -80z m-480 -72 c53 -39 97 -74 97 -77 0
-11 -154 -214 -162 -214 -10 0 -218 152 -218 159 0 4 37 55 81 114 57 78 83
106 92 99 7 -5 56 -41 110 -81z m1226 -52 c53 -40 100 -75 105 -80 13 -12
-154 -232 -168 -221 -6 5 -55 42 -108 81 -54 40 -98 75 -98 78 0 12 155 213
164 213 5 0 52 -32 105 -71z m-482 -71 c54 -39 102 -75 107 -79 5 -4 -28 -57
-74 -119 l-82 -110 -52 37 c-129 93 -167 126 -162 139 9 23 148 204 157 204 5
0 53 -32 106 -72z m-476 -74 c57 -42 105 -78 107 -79 3 -3 -137 -197 -157
-217 -7 -9 -227 149 -224 160 5 16 156 212 162 212 5 0 55 -34 112 -76z m1244
-67 l106 -78 -23 -32 c-45 -65 -139 -187 -144 -187 -3 0 -54 36 -115 81 l-110
81 24 32 c13 17 50 66 82 109 32 43 62 76 66 75 4 -2 55 -38 114 -81z m-1721
-7 l106 -81 -76 -102 c-42 -56 -80 -106 -84 -110 -4 -5 -58 29 -119 74 l-111
82 23 31 c13 17 50 66 81 109 32 42 62 77 66 77 4 0 55 -36 114 -80z m1236
-61 l109 -80 -80 -107 c-44 -59 -84 -107 -89 -107 -5 0 -56 35 -115 78 l-107
78 24 32 c14 18 51 67 82 110 32 42 60 77 62 77 2 0 53 -36 114 -81z m-473
-77 l101 -75 -80 -106 c-44 -58 -85 -106 -92 -105 -9 1 -144 95 -215 150 -9 8
162 223 173 217 6 -3 57 -40 113 -81z m-478 -72 c50 -36 90 -69 90 -74 1 -5
-34 -55 -76 -112 -53 -72 -82 -103 -92 -99 -25 10 -210 150 -208 157 1 4 37
55 80 113 72 99 79 106 97 93 11 -7 60 -42 109 -78z m1299 -108 c17 -13 32
-28 32 -32 0 -4 -36 -55 -80 -113 l-80 -106 -110 80 c-61 45 -110 84 -110 87
0 2 36 54 81 113 l81 109 76 -57 c43 -31 92 -67 110 -81z m-1785 39 c53 -39
97 -74 97 -77 0 -3 -36 -54 -81 -114 l-80 -110 -77 57 c-127 93 -142 105 -142
113 0 4 36 55 81 114 56 75 84 105 92 98 7 -5 56 -41 110 -81z m1331 -132 c5
-4 -28 -57 -74 -119 l-82 -110 -32 23 c-17 13 -66 50 -108 81 -43 32 -78 61
-78 65 0 3 36 55 80 114 l80 108 103 -77 c56 -42 106 -81 111 -85z m-587 9
c54 -39 102 -74 106 -78 5 -4 -28 -58 -73 -119 l-82 -111 -52 37 c-129 93
-167 126 -162 139 9 23 148 204 157 204 5 0 53 -32 106 -72z m-476 -74 c57
-42 106 -78 107 -80 3 -2 -132 -187 -158 -217 -4 -5 -58 28 -119 74 l-111 82
23 31 c13 17 50 66 81 109 32 42 62 77 66 77 4 0 54 -34 111 -76z m-1161
-1014 l520 0 0 -635 c0 -349 -3 -635 -7 -635 -14 0 -199 104 -268 150 -333
225 -597 561 -738 940 -133 357 -152 771 -55 1155 l23 90 3 -533 2 -532 520 0z
m-170 900 l0 -140 -145 0 -145 0 0 140 0 140 145 0 145 0 0 -140z m340 0 l0
-140 -140 0 -140 0 0 140 0 140 140 0 140 0 0 -140z m350 0 l0 -140 -140 0
-140 0 0 140 0 140 140 0 140 0 0 -140z m1885 47 c76 -56 104 -81 97 -90 -5
-7 -42 -56 -81 -109 -40 -54 -74 -98 -77 -98 -3 0 -54 36 -115 81 l-110 81 24
32 c13 17 50 66 82 109 32 43 62 76 66 75 4 -2 56 -38 114 -81z m-1691 -30
c61 -46 229 -171 374 -278 145 -107 323 -238 395 -291 73 -54 185 -136 249
-183 65 -47 120 -90 123 -95 4 -6 -227 -10 -629 -10 l-636 0 0 470 c0 259 3
470 7 470 4 0 57 -37 117 -83z m1206 -38 l109 -80 -80 -107 c-44 -59 -84 -107
-89 -107 -5 0 -56 35 -115 78 l-107 78 24 32 c14 18 51 67 82 110 32 42 60 77
63 77 2 0 53 -36 113 -81z m-478 -73 c54 -39 97 -75 98 -80 0 -12 -152 -216
-162 -216 -12 0 -213 152 -213 161 0 4 35 55 78 113 49 68 82 104 90 100 7 -4
56 -39 109 -78z m781 -150 c42 -32 77 -62 77 -66 0 -4 -36 -55 -80 -113 l-80
-106 -110 80 c-61 45 -110 84 -110 88 0 3 37 55 81 114 l80 109 32 -24 c18
-14 67 -51 110 -82z m-2393 -106 l0 -141 -142 3 -143 3 -3 138 -3 137 146 0
145 0 0 -140z m340 0 l0 -140 -140 0 -140 0 0 140 0 140 140 0 140 0 0 -140z
m350 0 l0 -140 -140 0 -140 0 0 140 0 140 140 0 140 0 0 -140z m1293 -20 c13
-11 -152 -232 -166 -223 -39 23 -203 150 -205 158 -2 6 33 58 78 118 l80 107
103 -76 c56 -42 106 -80 110 -84z m182 -133 l107 -78 -24 -32 c-14 -18 -51
-67 -82 -109 -32 -43 -61 -78 -65 -78 -3 0 -55 36 -114 81 l-109 80 24 32 c14
18 51 67 83 110 32 43 62 76 66 75 4 -2 56 -38 114 -81z m-2165 -192 l0 -146
-142 3 -143 3 -3 129 c-1 72 0 136 2 143 4 10 40 13 146 13 l140 0 0 -145z
m340 0 l0 -145 -140 0 -140 0 0 145 0 145 140 0 140 0 0 -145z m350 0 l0 -145
-140 0 -140 0 0 145 0 145 140 0 140 0 0 -145z m350 -345 l0 -140 -140 0 -140
0 0 140 0 140 140 0 140 0 0 -140z m350 0 l0 -140 -145 0 -145 0 0 133 c0 74
3 137 7 140 3 4 69 7 145 7 l138 0 0 -140z m340 0 l0 -140 -140 0 -140 0 0
140 0 140 140 0 140 0 0 -140z m350 0 l0 -140 -140 0 -140 0 0 140 0 140 140
0 140 0 0 -140z m-1040 -350 l0 -140 -140 0 -140 0 0 140 0 140 140 0 140 0 0
-140z m350 0 l0 -140 -145 0 -145 0 0 140 0 140 145 0 145 0 0 -140z m340 0
l0 -140 -140 0 -140 0 0 140 0 140 140 0 140 0 0 -140z m350 0 l0 -140 -140 0
-140 0 0 140 0 140 140 0 140 0 0 -140z m-1040 -345 l0 -145 -140 0 -140 0 0
145 0 145 140 0 140 0 0 -145z m348 -3 l3 -143 -143 3 -143 3 -3 129 c-1 72 0
136 2 143 4 11 36 13 143 11 l138 -3 3 -143z m342 3 l0 -145 -140 0 -140 0 0
138 c0 76 3 142 7 145 3 4 66 7 140 7 l133 0 0 -145z m350 0 l0 -145 -140 0
-140 0 0 138 c0 76 3 142 7 145 3 4 66 7 140 7 l133 0 0 -145z m-1040 -350 l0
-145 -140 0 -140 0 0 145 0 145 140 0 140 0 0 -145z m350 0 l0 -146 -142 3
-143 3 -3 129 c-1 72 0 136 2 143 4 10 40 13 146 13 l140 0 0 -145z m340 0 l0
-145 -140 0 -140 0 0 145 0 145 140 0 140 0 0 -145z m350 0 l0 -145 -140 0
-140 0 0 145 0 145 140 0 140 0 0 -145z m-132 -210 c-2 -3 -58 -15 -124 -27
-171 -31 -487 -31 -658 0 -66 12 -122 24 -124 27 -3 3 201 5 453 5 252 0 456
-2 453 -5z"/>
<path d="M5661 5880 c-132 -139 -145 -161 -105 -177 10 -4 34 12 72 50 l57 56
50 -44 50 -43 23 21 22 21 -47 48 -47 48 32 32 32 32 55 -54 c53 -53 55 -53
75 -35 11 10 20 23 20 29 0 11 -84 96 -136 139 -20 17 -23 14 -153 -123z"/>
<path d="M1937 5732 c-10 -10 -17 -21 -17 -24 0 -3 65 -63 145 -132 l144 -127
39 43 c21 24 56 62 77 86 l38 43 -24 17 c-13 9 -27 17 -31 17 -3 0 -28 -25
-56 -56 l-49 -56 -119 103 c-65 57 -122 104 -125 104 -3 0 -13 -8 -22 -18z"/>
<path d="M6090 5660 l-25 -19 21 -28 c11 -15 23 -33 27 -39 4 -7 -46 -49 -123
-103 -72 -51 -130 -96 -130 -101 0 -4 8 -17 18 -29 17 -20 18 -20 147 74 l130
94 32 -36 c31 -36 31 -36 57 -19 l27 17 -52 72 c-28 40 -61 87 -72 104 -26 38
-25 38 -57 13z"/>
<path d="M1759 5499 l-21 -29 128 -160 c70 -88 130 -160 134 -160 3 0 13 13
23 29 16 27 16 29 -4 47 -41 37 -42 50 -7 104 28 42 37 49 57 45 73 -18 75
-17 93 13 l18 30 -63 16 c-34 8 -124 33 -200 55 l-137 39 -21 -29z m149 -75
c32 -9 60 -19 64 -23 3 -3 -4 -21 -17 -39 l-22 -32 -47 55 c-26 30 -45 55 -41
55 4 0 32 -7 63 -16z"/>
<path d="M6155 5294 c-88 -47 -164 -89 -168 -93 -8 -8 12 -63 22 -59 3 2 38
20 78 40 l72 38 30 -55 29 -55 -74 -41 c-41 -22 -74 -42 -74 -44 0 -10 24 -55
29 -55 19 1 336 181 339 192 1 7 -4 22 -11 32 -14 19 -17 18 -80 -18 l-66 -37
-31 53 c-16 29 -30 55 -30 58 0 3 29 20 65 38 36 17 65 37 65 43 0 15 -19 49
-28 49 -4 0 -79 -39 -167 -86z"/>
<path d="M1601 5215 c-91 -77 -52 -202 84 -267 116 -55 216 -33 250 55 21 55
10 99 -33 140 l-28 27 -25 -26 c-17 -19 -20 -28 -11 -31 7 -3 19 -18 27 -33
18 -35 7 -73 -26 -90 -39 -22 -143 13 -195 65 -46 46 -22 112 42 119 24 3 30
8 32 35 3 31 3 31 -42 31 -33 0 -52 -6 -75 -25z"/>
<path d="M6308 4966 c-91 -33 -169 -64 -172 -67 -4 -3 11 -55 33 -115 35 -99
41 -109 62 -106 41 5 42 17 11 102 l-30 81 26 10 c74 28 76 27 103 -51 23 -70
25 -71 53 -66 16 4 31 8 34 10 2 2 -8 37 -23 77 -14 40 -22 75 -18 79 4 4 22
12 40 18 l32 11 28 -80 c29 -81 41 -92 76 -66 15 11 14 20 -22 117 -22 60 -44
106 -52 106 -8 1 -89 -26 -181 -60z"/>
<path d="M1459 4904 c-5 -15 -8 -28 -7 -29 10 -7 352 -125 363 -125 13 0 25
21 25 44 0 12 -328 136 -358 136 -7 0 -17 -12 -23 -26z"/>
<path d="M1441 4727 c-45 -23 -66 -63 -66 -125 0 -73 26 -111 102 -148 73 -36
170 -40 223 -9 51 30 83 96 76 159 -8 73 -24 91 -96 105 -34 7 -68 15 -75 17
-8 4 -18 -17 -29 -62 -9 -36 -15 -68 -13 -70 2 -2 17 -7 34 -10 29 -6 31 -4
37 31 6 31 10 35 29 29 31 -9 37 -16 43 -56 12 -73 -67 -115 -165 -88 -105 28
-139 138 -51 168 25 9 30 17 30 41 0 27 -3 31 -27 31 -16 0 -39 -6 -52 -13z"/>
<path d="M6450 4507 c-102 -16 -187 -31 -188 -33 -2 -1 -1 -17 3 -34 6 -26 11
-31 28 -26 12 3 45 8 73 12 l51 6 7 -41 c9 -59 26 -91 57 -107 53 -27 133 -11
173 35 17 18 18 31 13 98 -7 84 -16 124 -26 122 -3 -1 -89 -15 -191 -32z m150
-97 c0 -38 -4 -52 -19 -60 -49 -26 -91 5 -91 67 0 28 3 32 33 36 80 10 77 12
77 -43z"/>
<path d="M1387 4329 c-107 -57 -103 -206 8 -263 43 -22 141 -33 200 -22 82 16
139 109 116 187 -14 45 -67 94 -118 108 -63 18 -163 13 -206 -10z m234 -87
c37 -41 37 -66 0 -103 -27 -26 -36 -29 -99 -29 -93 0 -136 26 -140 87 -3 35 1
44 25 63 25 19 38 21 106 18 74 -3 81 -5 108 -36z"/>
<path d="M6492 4172 l-193 -2 3 -33 3 -32 85 -1 85 -2 3 -61 3 -61 -86 0 -85
0 0 -35 0 -35 195 0 195 0 0 35 0 35 -74 0 -74 0 -4 61 c-1 33 -1 63 1 65 2 2
37 4 78 4 l73 0 0 29 c0 17 -3 31 -7 33 -5 2 -95 2 -201 0z"/>
<path d="M1637 3896 l6 -84 -139 -6 c-183 -9 -184 -9 -184 -48 l0 -31 103 7
c56 3 144 9 195 12 l92 7 0 52 c0 29 -3 80 -6 114 l-7 61 -33 0 -33 0 6 -84z"/>
<path d="M6298 3803 c-2 -19 1 -33 7 -33 5 0 82 -7 170 -15 223 -21 215 -21
215 15 0 17 -1 30 -2 31 -2 0 -89 8 -195 18 l-191 17 -4 -33z"/>
<path d="M6286 3683 c-10 -35 -38 -204 -35 -208 2 -2 17 -5 34 -7 29 -3 29 -3
43 72 8 41 15 76 17 78 2 2 66 -8 143 -22 180 -33 182 -33 182 3 0 33 12 30
-220 71 -63 11 -125 23 -137 25 -15 4 -23 -1 -27 -12z"/>
<path d="M1491 3642 c-68 -19 -127 -75 -137 -128 -9 -47 20 -119 59 -148 43
-32 183 -30 250 3 122 60 131 210 17 269 -52 26 -111 28 -189 4z m159 -67 c32
-17 46 -51 36 -90 -14 -55 -144 -99 -210 -71 -56 23 -71 77 -33 121 42 49 149
70 207 40z"/>
<path d="M6224 3394 c-4 -14 -3 -29 2 -33 9 -9 340 -101 360 -101 12 0 29 48
20 57 -4 5 -355 103 -368 103 -4 0 -11 -12 -14 -26z"/>
<path d="M1610 3253 c-96 -36 -176 -67 -178 -69 -3 -2 15 -42 23 -52 1 -1 51
16 111 38 60 22 113 40 119 40 5 0 -20 -30 -55 -67 -136 -141 -135 -140 -122
-168 6 -14 16 -25 21 -25 6 0 88 29 183 64 159 59 173 66 170 88 -1 12 -6 26
-10 29 -4 4 -52 -11 -107 -32 -55 -21 -106 -38 -113 -39 -7 0 26 43 75 95 48
53 89 102 91 110 4 16 -15 55 -26 54 -4 0 -86 -30 -182 -66z"/>
<path d="M6183 3260 l-11 -29 69 -27 c38 -15 69 -28 69 -29 0 -2 -7 -22 -15
-45 -8 -23 -15 -55 -15 -70 0 -83 145 -146 204 -87 29 29 83 164 70 176 -7 8
-346 141 -357 141 -1 0 -8 -13 -14 -30z m265 -136 c30 -12 31 -14 20 -41 -21
-50 -44 -68 -74 -58 -41 15 -50 36 -35 85 13 45 14 45 89 14z"/>
<path d="M1748 2917 c-92 -51 -168 -96 -168 -102 1 -5 7 -19 16 -30 15 -20 16
-20 74 13 32 17 63 32 69 32 6 0 22 -23 37 -51 29 -58 32 -53 -51 -96 -27 -14
-51 -27 -53 -28 -6 -5 22 -55 31 -55 5 0 85 41 177 92 l169 92 -15 28 c-8 15
-16 28 -18 28 -2 0 -36 -18 -76 -40 -68 -37 -74 -39 -86 -23 -17 24 -48 92
-43 96 2 2 34 20 72 41 37 20 67 39 67 41 0 10 -24 55 -29 54 -3 0 -81 -41
-173 -92z"/>
<path d="M6066 2978 c-9 -12 -16 -25 -16 -28 0 -3 29 -21 64 -40 l63 -34 -23
-51 c-13 -27 -24 -62 -24 -77 0 -37 42 -83 94 -103 47 -18 78 -14 109 13 20
18 87 133 87 149 0 8 -321 193 -335 193 -2 0 -11 -10 -19 -22z m261 -193 c1
-5 -6 -25 -17 -42 -39 -65 -126 -27 -100 43 21 53 28 56 73 32 22 -13 42 -27
44 -33z"/>
<path d="M5906 2709 c-9 -13 -12 -27 -8 -31 4 -4 77 -55 162 -112 l155 -105
17 22 c10 12 18 25 18 28 0 7 -290 206 -313 215 -9 3 -22 -4 -31 -17z"/>
<path d="M2018 2668 c-29 -10 -32 -18 -22 -55 5 -19 9 -20 32 -12 55 21 110
-22 96 -75 -8 -35 -97 -113 -141 -125 -70 -20 -124 32 -91 89 16 28 16 29 -7
44 -14 9 -28 16 -33 16 -11 0 -42 -66 -42 -91 0 -36 31 -88 65 -109 70 -43
169 -17 253 67 95 95 85 212 -21 252 -34 13 -53 13 -89 -1z"/>
<path d="M5827 2597 c-15 -23 -13 -25 79 -102 52 -43 94 -79 94 -80 0 -2 -44
8 -97 21 -157 38 -175 39 -197 15 -24 -26 -33 -16 149 -170 120 -101 131 -108
148 -93 9 8 17 20 17 27 0 6 -40 44 -90 85 -49 40 -88 75 -86 78 3 2 64 -10
137 -28 l133 -31 18 23 c10 13 17 25 17 28 0 6 -286 244 -298 248 -4 1 -15 -8
-24 -21z"/>
<path d="M2262 2438 l-22 -22 62 -63 63 -63 -38 -37 -37 -38 -58 58 -58 57
-22 -22 -22 -22 57 -58 57 -58 -32 -32 -32 -32 -60 59 -60 59 -22 -22 -23 -22
85 -85 85 -85 140 140 140 140 -85 85 c-46 47 -87 85 -90 85 -3 0 -16 -10 -28
-22z"/>
<path d="M5537 2287 c-86 -80 -87 -83 -72 -104 9 -13 20 -23 25 -23 5 0 36 25
68 55 33 30 63 55 67 55 4 0 22 -17 40 -37 l32 -37 -59 -54 -59 -55 22 -23 22
-23 59 51 59 51 30 -29 31 -29 -66 -61 -66 -60 25 -24 24 -23 86 78 c47 43 84
81 83 85 -4 11 -252 288 -258 289 -3 0 -45 -37 -93 -82z"/>
<path d="M2497 2097 c-42 -56 -87 -115 -99 -130 l-23 -28 -34 26 c-43 31 -45
31 -65 0 l-16 -24 102 -77 101 -77 19 23 c19 23 23 40 11 40 -5 0 -21 12 -36
25 l-28 25 100 129 100 130 -27 20 -27 19 -78 -101z"/>
<path d="M5300 2107 c-72 -48 -87 -120 -38 -182 38 -48 76 -58 156 -38 38 9
77 13 86 10 25 -10 16 -46 -17 -71 -23 -17 -31 -18 -47 -8 -27 17 -44 15 -64
-7 -16 -18 -16 -20 10 -40 41 -32 67 -35 117 -13 54 24 81 61 80 108 -1 45
-26 81 -69 101 -33 16 -39 16 -103 0 -76 -20 -98 -16 -107 20 -5 17 0 31 17
49 26 28 59 31 93 9 21 -14 25 -14 47 4 20 16 22 21 9 36 -40 48 -117 58 -170
22z"/>
<path d="M4303 1762 c-13 -2 -24 -13 -27 -28 -4 -13 -23 -42 -43 -64 -32 -36
-35 -44 -27 -72 l9 -31 38 32 c20 18 37 28 37 22 0 -12 26 -193 35 -249 6 -30
9 -33 38 -30 21 2 31 8 30 18 -10 92 -57 396 -62 401 -3 3 -16 3 -28 1z"/>
<path d="M3577 1735 c-10 -14 -36 -34 -58 -45 -34 -18 -39 -25 -39 -55 l0 -35
40 20 c21 11 41 20 43 20 2 0 -7 -64 -19 -142 -13 -79 -24 -146 -24 -150 0 -5
15 -8 33 -8 l34 0 32 198 c17 108 31 203 31 210 0 22 -54 13 -73 -13z"/>
<path d="M3759 1725 c-36 -20 -59 -73 -59 -137 0 -95 64 -153 131 -118 24 13
25 -5 5 -55 -12 -27 -21 -35 -41 -35 -18 0 -29 6 -32 20 -4 15 -14 20 -40 20
-28 0 -34 -3 -29 -16 3 -9 6 -21 6 -28 0 -7 11 -25 25 -40 37 -40 96 -37 140
7 39 39 56 94 58 191 3 97 -8 140 -44 176 -34 34 -76 39 -120 15z m81 -74 c5
-11 10 -36 10 -56 0 -72 -43 -100 -76 -50 -18 28 -14 85 7 111 16 20 47 17 59
-5z"/>
<path d="M4008 1725 c-45 -25 -61 -87 -56 -212 6 -147 38 -205 113 -205 45 0
81 31 96 83 17 56 7 236 -15 282 -29 60 -84 81 -138 52z m73 -72 c10 -11 15
-53 18 -133 2 -98 0 -119 -13 -133 -22 -22 -42 -12 -55 25 -15 43 -14 231 1
246 17 17 33 15 49 -5z"/>
<path d="M3260 1610 c-27 -27 -25 -55 6 -79 56 -44 119 34 66 82 -25 22 -48
21 -72 -3z"/>
<path d="M4552 1614 c-26 -18 -30 -65 -7 -84 38 -32 95 -4 95 46 0 22 -33 54
-55 54 -6 0 -21 -7 -33 -16z"/>
</g>
</svg>
